<svg width="81" height="81" viewBox="0 0 81 81" fill="none" xmlns="http://www.w3.org/2000/svg">
<path d="M70.7035 0.916829H10.7035C10.0681 0.906413 9.43265 0.958495 8.80765 1.07308C8.17744 1.18766 7.56807 1.35954 6.97432 1.59391C6.38057 1.82829 5.81807 2.11475 5.2764 2.4585C4.73995 2.79704 4.23995 3.18766 3.78161 3.63037C3.31807 4.06787 2.9014 4.54704 2.53161 5.06787C2.16182 5.5887 1.84932 6.13558 1.5889 6.71891C1.32328 7.30225 1.12015 7.9012 0.97432 8.521C0.828487 9.14079 0.745154 9.771 0.72432 10.4064C0.672236 11.771 0.72432 13.146 0.72432 14.5158V70.297C0.703487 71.2814 0.797236 72.2502 0.995154 73.2137C1.19828 74.0158 1.49515 74.7814 1.89099 75.5106C2.28161 76.2398 2.76078 76.9064 3.32849 77.5158C3.89099 78.1252 4.5212 78.6512 5.21911 79.0991C5.91182 79.547 6.65661 79.9064 7.44307 80.1668C8.73995 80.547 10.0681 80.7033 11.417 80.6356H40.5993C42.2452 80.6356 42.2452 78.0783 40.5993 78.0783H10.7452C9.78161 78.1043 8.84411 77.9481 7.94307 77.6095C7.04203 77.271 6.23474 76.771 5.5264 76.1147C4.80245 75.4272 4.25036 74.62 3.85974 73.6981C3.46911 72.7814 3.28161 71.8179 3.29724 70.8179V10.8022C3.29203 10.3231 3.3337 9.85433 3.41703 9.38558C3.50557 8.91683 3.64099 8.4637 3.81807 8.021C3.99515 7.57829 4.2139 7.15641 4.47432 6.76058C4.73474 6.35954 5.03161 5.98975 5.35974 5.6512C5.69307 5.31266 6.05765 5.00537 6.44828 4.73975C6.84411 4.46891 7.26078 4.23975 7.69828 4.05225C8.13578 3.86475 8.5889 3.72412 9.05245 3.62516C9.51599 3.5262 9.98995 3.47412 10.4639 3.46891H70.5472C71.0212 3.4637 71.4952 3.50016 71.9639 3.5835C72.4327 3.66683 72.8858 3.79704 73.3285 3.96891C73.7712 4.14079 74.1931 4.35433 74.5941 4.61475C74.9952 4.86995 75.3702 5.16162 75.7139 5.48975C76.0524 5.82308 76.3597 6.18245 76.6358 6.57308C76.9066 6.9637 77.1358 7.37516 77.3285 7.81266C77.516 8.24496 77.667 8.69808 77.766 9.16162C77.8702 9.62516 77.9222 10.0991 77.9327 10.5731V70.6772C77.9587 72.0314 77.641 73.3023 76.9847 74.4845C76.3441 75.6043 75.4639 76.4793 74.3441 77.1252C73.2295 77.7658 72.0264 78.0887 70.7347 78.0783H61.6462C60.0004 78.0783 60.0004 80.6356 61.6462 80.6356H66.4274C68.0733 80.6356 69.7347 80.7189 71.3754 80.6356C72.2035 80.5783 73.0108 80.4168 73.7972 80.1512C74.5837 79.8856 75.3233 79.5314 76.0212 79.0783C76.7139 78.6252 77.3441 78.0939 77.9066 77.4845C78.4639 76.87 78.9379 76.1981 79.3285 75.4689C80.1149 73.9585 80.49 72.3491 80.4691 70.6512V10.6564C80.4639 10.021 80.3962 9.38558 80.266 8.76058C80.1358 8.13558 79.9483 7.5262 79.7035 6.93766C79.4535 6.34912 79.1514 5.78662 78.7972 5.25537C78.4379 4.72412 78.0368 4.23454 77.5837 3.78141C77.1306 3.3335 76.6358 2.92724 76.1045 2.57308C75.5733 2.21891 75.016 1.91683 74.4222 1.67204C73.8337 1.42725 73.2243 1.23975 72.5993 1.10954C71.9743 0.984538 71.3389 0.916829 70.7035 0.916829Z" fill="#28282D"/>
<path d="M40.5938 19.5366C39.8958 19.5366 39.2031 19.5731 38.5104 19.6408C37.8177 19.7085 37.1302 19.8127 36.4479 19.9481C35.7604 20.0835 35.0885 20.2502 34.4219 20.4533C33.7552 20.6564 33.1042 20.8908 32.4583 21.1564C31.8177 21.422 31.1875 21.7189 30.5729 22.047C29.9583 22.3752 29.3646 22.7345 28.7865 23.12C28.2083 23.5106 27.6458 23.922 27.1094 24.3647C26.5729 24.8075 26.0573 25.271 25.5677 25.7658C25.0729 26.2554 24.6042 26.771 24.1667 27.3127C23.724 27.8491 23.3073 28.4064 22.9219 28.9845C22.5365 29.5679 22.1771 30.1616 21.849 30.7762C21.526 31.3908 21.224 32.0158 20.9583 32.6616C20.6927 33.3022 20.4583 33.9585 20.2604 34.6252C20.0573 35.2918 19.8854 35.9637 19.75 36.646C19.6146 37.3283 19.5156 38.021 19.4479 38.7085C19.3802 39.4012 19.3438 40.0991 19.3438 40.7918C19.3438 41.4897 19.3802 42.1825 19.4479 42.8752C19.5156 43.5679 19.6198 44.2554 19.7552 44.9377C19.8906 45.6252 20.0573 46.297 20.2604 46.9637C20.4635 47.6304 20.6979 48.2814 20.9635 48.9272C21.2292 49.5679 21.526 50.1981 21.8542 50.8127C22.1823 51.4272 22.5417 52.021 22.9271 52.5991C23.3125 53.1772 23.7292 53.7397 24.1719 54.2762C24.6094 54.8127 25.0781 55.3283 25.5729 55.8179C26.0625 56.3127 26.5781 56.7814 27.1146 57.2189C27.6563 57.6616 28.2135 58.0783 28.7917 58.4637C29.3698 58.8491 29.9687 59.2085 30.5781 59.5366C31.1927 59.8647 31.8229 60.1616 32.4635 60.4272C33.1094 60.6929 33.7656 60.9272 34.4271 61.1304C35.0938 61.3283 35.7708 61.5002 36.4531 61.6356C37.1354 61.771 37.8229 61.8752 38.5156 61.9429C39.2083 62.0106 39.901 62.0418 40.599 62.0418C41.2969 62.0418 41.9896 62.0106 42.6823 61.9429C43.375 61.87 44.0625 61.771 44.7448 61.6356C45.4271 61.5002 46.1042 61.3283 46.7656 61.1252C47.4323 60.9272 48.0885 60.6929 48.7292 60.4272C49.375 60.1564 50.0052 59.8595 50.6146 59.5314C51.2292 59.2033 51.8281 58.8491 52.4062 58.4585C52.9844 58.0731 53.5417 57.6616 54.0781 57.2189C54.6198 56.7762 55.1354 56.3075 55.625 55.8179C56.1198 55.3231 56.5833 54.8127 57.026 54.271C57.4688 53.7345 57.8802 53.1772 58.2708 52.5991C58.6563 52.021 59.0104 51.422 59.3385 50.8075C59.6667 50.1929 59.9635 49.5679 60.2344 48.922C60.5 48.2814 60.7344 47.6252 60.9323 46.9585C61.1354 46.2918 61.3073 45.62 61.4427 44.9377C61.5781 44.2554 61.6771 43.5679 61.75 42.8752C61.8177 42.1825 61.849 41.4845 61.849 40.7918C61.849 40.0939 61.8177 39.4012 61.7448 38.7085C61.6771 38.0158 61.5781 37.3283 61.4427 36.646C61.3073 35.9585 61.1354 35.2866 60.9323 34.62C60.7344 33.9533 60.5 33.297 60.2292 32.6564C59.9635 32.0106 59.6667 31.3856 59.3385 30.771C59.0104 30.1564 58.6563 29.5575 58.2656 28.9793C57.8802 28.4012 57.4635 27.8439 57.026 27.3075C56.5833 26.7658 56.1146 26.2502 55.625 25.7606C55.1302 25.2658 54.6146 24.8022 54.0781 24.3595C53.5365 23.9168 52.9792 23.5054 52.401 23.1147C51.8229 22.7293 51.224 22.3752 50.6094 22.047C50 21.7189 49.3698 21.422 48.724 21.1512C48.0833 20.8856 47.4271 20.6512 46.7604 20.4533C46.0938 20.2502 45.4219 20.0783 44.7396 19.9429C44.0573 19.8075 43.3698 19.7085 42.6771 19.6408C41.9844 19.5731 41.2865 19.5366 40.5938 19.5366ZM40.5938 59.2033C39.3802 59.2033 38.1875 59.0835 37 58.8491C35.8125 58.6095 34.6615 58.2606 33.5469 57.797C32.4271 57.3387 31.3698 56.771 30.3646 56.0991C29.3594 55.4272 28.4271 54.6616 27.5729 53.8075C26.7187 52.9533 25.9583 52.021 25.2865 51.0158C24.6146 50.0106 24.0469 48.9481 23.5833 47.8335C23.1198 46.7137 22.7708 45.5627 22.5365 44.3804C22.3021 43.1929 22.1823 41.995 22.1823 40.7866C22.1823 39.5783 22.3021 38.3804 22.5365 37.1929C22.776 36.0106 23.125 34.8595 23.5885 33.7397C24.0521 32.6252 24.6198 31.5627 25.2917 30.5575C25.9635 29.5522 26.724 28.6252 27.5781 27.771C28.4323 26.9116 29.3646 26.1512 30.3698 25.4793C31.375 24.8075 32.4375 24.2397 33.5521 23.7762C34.6719 23.3179 35.8229 22.9689 37.0052 22.7293C38.1927 22.495 39.3906 22.3804 40.599 22.3804C41.8073 22.3804 43.0052 22.495 44.1927 22.7345C45.375 22.9689 46.526 23.3179 47.6458 23.7814C48.7604 24.245 49.8229 24.8075 50.8281 25.4793C51.8333 26.1512 52.7604 26.9168 53.6146 27.771C54.474 28.6252 55.2344 29.5575 55.9062 30.5627C56.5781 31.5679 57.1458 32.6304 57.6094 33.745C58.0729 34.8595 58.4219 36.0106 58.6562 37.1981C58.8906 38.3856 59.0104 39.5835 59.0104 40.7918C59.0104 42.0002 58.8906 43.1981 58.6562 44.3856C58.4219 45.5679 58.0677 46.7189 57.6094 47.8387C57.1458 48.9533 56.5781 50.0158 55.9062 51.021C55.2344 52.0262 54.4688 52.9585 53.6146 53.8127C52.7604 54.6668 51.8281 55.4325 50.8229 56.0991C49.8177 56.771 48.7552 57.3387 47.6406 57.8022C46.5208 58.2658 45.3698 58.6147 44.1823 58.8491C43 59.0835 41.8021 59.2033 40.5938 59.2033Z" fill="#28282D"/>
<path d="M70.7707 13.2658C70.7707 13.6981 70.6873 14.12 70.5207 14.521C70.354 14.922 70.1144 15.2762 69.8071 15.5835C69.4998 15.8908 69.1457 16.1252 68.7446 16.2918C68.3436 16.4585 67.9269 16.5418 67.4894 16.5418C67.0571 16.5418 66.6405 16.4585 66.2342 16.2918C65.8332 16.1252 65.479 15.8908 65.1717 15.5835C64.8644 15.2762 64.63 14.922 64.4634 14.521C64.2967 14.12 64.2134 13.6981 64.2134 13.2658C64.2134 12.8335 64.2967 12.4116 64.4634 12.0106C64.63 11.6095 64.8644 11.2554 65.1717 10.9481C65.479 10.6408 65.8332 10.4012 66.2342 10.2397C66.6405 10.0731 67.0571 9.98975 67.4894 9.98975C67.9269 9.98975 68.3436 10.0731 68.7446 10.2397C69.1457 10.4012 69.4998 10.6408 69.8071 10.9481C70.1144 11.2554 70.354 11.6095 70.5207 12.0106C70.6873 12.4116 70.7707 12.8335 70.7707 13.2658Z" fill="#28282D"/>
</svg>
