<svg width="93" height="81" viewBox="0 0 93 81" fill="none" xmlns="http://www.w3.org/2000/svg">
<mask id="mask0_2016_27" style="mask-type:luminance" maskUnits="userSpaceOnUse" x="0" y="0" width="93" height="81">
<path d="M0.291504 0.859375H92.2342V80.8125H0.291504V0.859375Z" fill="white"/>
</mask>
<g mask="url(#mask0_2016_27)">
<path d="M92.1925 2.96875C92.1925 2.95833 92.1977 2.95312 92.1977 2.94792C92.2237 2.90625 92.2446 2.86458 92.2602 2.82292C92.2654 2.80729 92.2758 2.79687 92.281 2.78125C92.2967 2.73437 92.3123 2.6875 92.3279 2.64062C92.3279 2.63542 92.3331 2.63021 92.3331 2.61979C92.3487 2.56771 92.3592 2.51563 92.3644 2.46354C92.3696 2.44792 92.3696 2.43229 92.3696 2.41667C92.3748 2.375 92.38 2.33333 92.38 2.29167C92.38 2.27604 92.38 2.26563 92.38 2.25C92.38 2.14063 92.3644 2.02604 92.3383 1.91667C92.3331 1.90625 92.3279 1.89063 92.3279 1.88021C92.3175 1.83854 92.3019 1.79688 92.2862 1.75521C92.281 1.73958 92.2758 1.72917 92.2706 1.71354C92.2498 1.66667 92.2289 1.61979 92.2029 1.57812C92.1977 1.57292 92.1977 1.56771 92.1925 1.5625C92.1925 1.5625 92.1925 1.5625 92.1925 1.55729C92.1612 1.50521 92.13 1.46354 92.0987 1.41667C92.0883 1.40625 92.0831 1.39583 92.0727 1.38542C92.0467 1.34896 92.0154 1.31771 91.9842 1.28646C91.9737 1.27604 91.9633 1.26563 91.9529 1.25521C91.9164 1.21875 91.88 1.1875 91.8435 1.15625C91.8383 1.15104 91.8331 1.15104 91.8279 1.14583C91.7862 1.10937 91.7394 1.08333 91.6873 1.05208C91.6769 1.04688 91.6664 1.04167 91.6612 1.03646C91.6196 1.01563 91.5831 0.994792 91.5414 0.979167C91.5258 0.973959 91.5102 0.963541 91.4998 0.958333C91.4529 0.942708 91.406 0.927082 91.3644 0.911458C91.3539 0.911458 91.3487 0.90625 91.3383 0.90625C91.2862 0.890625 91.2342 0.880208 91.1769 0.875C91.1664 0.869792 91.1508 0.869792 91.1352 0.869792C91.0935 0.864584 91.0467 0.859375 90.9998 0.859375C90.9946 0.859375 90.9842 0.859375 90.9789 0.859375H1.80186C1.20811 0.859375 0.682066 1.23437 0.484149 1.79167C0.281025 2.35417 0.458108 2.97917 0.921649 3.34896L37.8331 33.2031L44.656 79.5417C44.7446 80.1302 45.1925 80.6042 45.781 80.7135C45.8696 80.7344 45.9581 80.7396 46.0467 80.7396C46.5362 80.7396 47.005 80.4792 47.255 80.0417L92.1769 2.98958L92.1925 2.96875ZM85.7862 3.66146L39.2706 30.7604L5.77061 3.66146H85.7862ZM46.8487 75.1719L40.6716 33.1927L87.0883 6.15104L46.8487 75.1719Z" fill="#28282D"/>
</g>
</svg>
