<svg width="0" height="0">
    <symbol viewBox="0 0 71 131" fill="none" xmlns="http://www.w3.org/2000/svg" id="arrow-to-bottom">
    <mask id="mask0_2016_15" style="mask-type:luminance" maskUnits="userSpaceOnUse" x="0" y="0" width="71" height="131">
        <path d="M0.333496 0.333496H71.0002V131H0.333496V0.333496Z" fill="white"/>
        </mask>
        <g mask="url(#mask0_2016_15)">
        <mask id="mask1_2016_15" style="mask-type:luminance" maskUnits="userSpaceOnUse" x="-4" y="-1" width="78" height="133">
        <path d="M73.7555 129.297L0.828451 131.474L-3.05176 1.6097L69.8753 -0.567383L73.7555 129.297Z" fill="white"/>
    </mask>
    <g mask="url(#mask1_2016_15)">
    <mask id="mask2_2016_15" style="mask-type:luminance" maskUnits="userSpaceOnUse" x="-3" y="-1" width="78" height="133">
    <path d="M1.1097 131.469L74.0368 129.287L70.1566 -0.577637L-2.77051 1.59945L1.1097 131.469Z" fill="white"/>
    </mask>
    <g mask="url(#mask2_2016_15)">
    <path d="M63.1149 85.4431C57.516 95.5004 49.0524 103.584 39.568 109.964C29.7816 116.542 18.943 121.422 7.95345 125.62C6.60449 126.136 5.25032 126.641 3.89616 127.136C3.69824 127.219 3.50553 127.214 3.31282 127.12C3.12012 127.032 2.98991 126.886 2.92741 126.683C2.88574 126.766 2.83366 126.849 2.78678 126.928C5.05762 128.016 7.37012 129.021 9.66178 130.063C10.2503 130.329 9.77116 131.172 9.18782 130.933C6.69303 129.912 4.21387 128.829 1.68782 127.881C1.47428 127.823 1.32324 127.693 1.2347 127.495C1.14616 127.292 1.15658 127.094 1.25553 126.901C2.96907 124.021 4.16699 120.948 4.8597 117.667C5.04199 116.813 6.36491 117.136 6.18262 117.99C5.62532 120.605 4.75032 123.105 3.55762 125.495C14.2295 121.568 24.7712 117.11 34.516 111.209C44.0472 105.433 52.8701 98.1515 59.1305 88.8285C62.542 83.7348 65.0628 78.2348 66.6982 72.3285C68.3285 66.4171 68.9951 60.4015 68.693 54.2817C68.417 48.2973 67.1982 42.5056 65.0472 36.9119C62.8962 31.3181 59.9118 26.2087 56.1045 21.5837C52.5264 17.2504 48.4066 13.516 43.7399 10.3806C39.0732 7.24521 34.0576 4.84416 28.693 3.17229C27.391 2.77646 26.068 2.4275 24.7347 2.12541C24.5837 2.07854 24.4639 1.99 24.3857 1.84937C24.3024 1.70875 24.2816 1.56291 24.318 1.40666C24.3597 1.25041 24.443 1.13062 24.5785 1.04208C24.7139 0.958748 24.8597 0.932706 25.0212 0.963956C30.6149 2.21916 35.9118 4.25041 40.9066 7.06291C45.9066 9.87021 50.391 13.3442 54.3701 17.4744C58.5368 21.7921 61.9326 26.6462 64.5576 32.0421C67.1878 37.4379 68.917 43.1046 69.7503 49.0473C70.193 52.1567 70.3805 55.2869 70.3232 58.4275C70.2607 61.5733 69.9482 64.6879 69.3857 67.7817C68.818 70.8754 68.0107 73.9015 66.9639 76.865C65.9118 79.8285 64.6253 82.6879 63.1149 85.4431Z" fill="#E65418"/>
    </g>
    </g>
    </g>
    </symbol>
    <symbol viewBox="0 0 346 9" fill="none" xmlns="http://www.w3.org/2000/svg" id="arrow-to-rigth">
        <path fill-rule="evenodd" clip-rule="evenodd" d="M344.932 5.57746H0.53125V3.57861H344.932V5.57746Z" fill="black"/>
        <path fill-rule="evenodd" clip-rule="evenodd" d="M340.133 0.978442C340.464 0.536869 341.09 0.447377 341.532 0.778556L345.532 3.77856C345.784 3.96739 345.932 4.26379 345.932 4.57851C345.931 4.89323 345.783 5.18951 345.531 5.37813L341.531 8.37293C341.089 8.70374 340.463 8.61372 340.132 8.17187C339.801 7.73002 339.891 7.10366 340.333 6.77285L343.265 4.5774L340.332 2.37763C339.891 2.04645 339.801 1.42002 340.133 0.978442Z" fill="black"/>
    </symbol>
</svg>