<svg width="34" height="56" viewBox="0 0 34 56" fill="none" xmlns="http://www.w3.org/2000/svg">
<path d="M22.8019 41.1666C19.0987 39.1875 16.4164 35.9531 14.1508 32.4895C13.031 30.7812 11.9946 29.0208 10.906 27.2916C9.68727 25.3645 8.36436 23.5104 7.05185 21.6406C5.7029 19.7187 4.36956 17.7708 3.28102 15.6875C2.21852 13.6406 1.33831 11.3958 1.15081 9.07808C0.968521 6.85412 1.5154 4.61454 3.09873 2.98954C4.55185 1.49475 6.61956 0.723917 8.69769 0.99475C10.781 1.27079 12.7081 2.48433 14.0102 4.10933C15.4529 5.90621 16.0779 8.2135 16.505 10.4375C16.6144 11.0104 16.7133 11.5885 16.8071 12.1666C16.8696 12.5156 17.4321 12.5 17.505 12.1666C17.8904 10.3906 19.4998 9.29683 21.0258 8.54163C21.9008 8.11454 22.8175 7.77079 23.7394 7.45829C24.7289 7.13017 25.7341 6.81767 26.7602 6.61975C28.5258 6.276 30.9216 6.20829 32.005 7.95829C32.9841 9.54683 32.1925 11.6614 31.4216 13.1614C30.2862 15.3854 28.9112 17.4895 27.5466 19.5781C26.1508 21.7135 24.7237 23.8281 23.3748 25.9948C20.781 30.1614 18.531 34.5364 16.6716 39.0781C14.8331 43.5625 13.3748 48.1979 12.3435 52.9323C12.2185 53.5156 12.0987 54.0989 11.9841 54.6823C11.8956 55.1354 12.5935 55.3281 12.6821 54.875C13.6404 49.9687 15.0519 45.151 16.8748 40.4948C18.7237 35.7812 21.005 31.2395 23.6508 26.9218C25.0258 24.6718 26.505 22.4895 27.9477 20.2812C29.3591 18.125 30.7758 15.9479 31.9789 13.6614C32.8331 12.0312 33.63 9.901 32.8748 8.0885C32.0466 6.0885 29.7862 5.55204 27.8279 5.73954C26.7446 5.8385 25.6821 6.09892 24.6456 6.41142C23.6664 6.70829 22.6977 7.03642 21.7602 7.42704C20.0571 8.13537 18.2081 9.09892 17.2654 10.7656C17.0571 11.1458 16.9008 11.552 16.8071 11.9739H17.505C17.1039 9.57288 16.6612 7.13017 15.4581 4.98433C14.3644 3.04683 12.6352 1.51558 10.5519 0.729125C8.46331 -0.0573339 6.1404 0.0780835 4.20811 1.20829C2.32269 2.31246 0.989356 4.19788 0.56748 6.34371C0.088313 8.79683 0.645605 11.3281 1.54665 13.6198C2.42685 15.8541 3.66123 17.927 4.99456 19.9218C6.36436 21.9739 7.84352 23.9531 9.21331 26.0104C10.3956 27.7812 11.4789 29.6145 12.6039 31.4166C14.8748 35.0416 17.4216 38.6041 21.0571 40.9739C21.505 41.2656 21.9685 41.5364 22.4373 41.7916C22.8487 42.0104 23.2133 41.3854 22.8019 41.1666Z" fill="#FAF7F2"/>
</svg>
