<svg width="642" height="195" viewBox="0 0 642 195" fill="none" xmlns="http://www.w3.org/2000/svg">
<path d="M12.9807 184.722C18.59 182.185 28.2515 176.867 35.9911 170.185C41.0275 165.857 41.9234 165.565 48.3921 159.544L48.9234 158.878C51.5588 156.305 49.2463 156.8 48.4182 157.31C48.4911 157.534 35.5692 168.097 35.6421 168.321C28.3557 174.112 20.8557 179.232 10.5432 183.279C6.73066 184.498 5.02753 183.81 4.22024 182.831C3.78274 182.232 2.68899 180.362 3.30878 178.43L3.84524 177.024C5.75149 172.956 9.53274 167.789 11.4754 166.919L12.3713 166.633L11.6109 168.112C11.2254 169.227 10.9963 170.039 11.2879 170.196L11.7307 170.794C11.8036 171.018 12.2515 170.873 12.4754 170.8C13.2984 170.289 15.215 165.477 14.7046 164.654C14.4859 163.982 12.8557 163.513 12.0327 164.029C9.26191 165.409 4.82961 169.3 2.08482 174.623C0.563988 177.581 -0.0558027 179.508 0.735864 181.972C1.3817 183.992 3.65774 186.472 6.78795 186.211C8.72024 186.086 9.68899 186.024 12.9807 184.722Z" fill="#FAF7F2"/>
<path d="M70.5412 161.486C73.4162 162.809 78.4683 159.257 82.036 155.674L93.1767 144.799C93.5569 144.434 93.3485 143.757 92.8277 143.674L92.5308 143.522L91.8589 143.731L91.4787 144.095C86.0777 150.47 73.8121 161.7 71.6923 159.647C69.2079 157.22 72.4058 149.319 75.3537 146.918C75.9735 145.741 75.536 145.137 75.0985 144.533C74.5829 144.45 73.6142 144.507 72.5621 145.08C70.0048 146.371 71.9423 146.262 65.3329 153.502C60.7704 158.627 55.7652 163.887 52.2808 163.007C51.7652 162.924 51.0308 162.163 50.6819 161.043C50.5412 160.59 51.0725 159.934 51.161 159.413C51.2548 158.147 50.6662 157.84 50.0777 157.533C47.4266 156.142 47.3016 158.892 48.8694 162.345C49.7287 164.299 51.3537 164.772 53.0673 164.731C57.3902 164.366 63.2131 159.34 65.5048 156.408C66.4162 155.382 67.8589 153.7 68.8433 152.897C68.8277 153.642 68.4371 154.752 68.1975 155.564C67.4683 158.752 69.1402 160.939 70.5412 161.486Z" fill="#FAF7F2"/>
<path d="M92.4475 154.888C95.5985 153.925 99.2912 149.102 99.8641 146.961L100.468 146.529C102.859 146.289 105.625 145.69 108.552 144.794C111.703 143.831 118.625 140.727 122.729 137.258L124.479 135.737C124.859 135.372 124.947 134.857 124.583 134.471C124.224 134.091 123.546 134.3 123.39 134.591C119.666 137.701 115.27 141.013 107.619 143.357C105.817 143.909 103.953 144.232 102.463 144.195C101.942 144.107 101.427 144.023 100.458 144.07L99.8381 142.044C99.7704 141.82 99.6298 141.372 99.3381 141.216C98.9735 140.836 98.161 140.591 97.4891 140.8L94.4944 141.466L93.9735 141.383L92.3798 142.607L89.7287 147.602C89.26 148.482 88.0933 153.513 89.7652 154.971C90.7183 155.664 90.7183 155.664 92.4475 154.888ZM96.9631 143.909C96.4423 143.826 96.1506 143.669 96.5985 143.529C96.8277 143.461 97.1194 143.617 97.3433 143.55C97.411 143.773 97.4839 143.997 96.9631 143.909ZM92.5048 152.654C92.2808 152.727 91.036 151.878 92.2339 148.555C93.0308 146.341 93.6402 145.914 94.3121 145.706L95.4214 146.107L96.9787 146.367C97.2704 146.523 98.2391 146.471 96.0725 149.841C94.5985 152.263 92.7287 152.586 92.5048 152.654Z" fill="#FAF7F2"/>
<path d="M123.302 152.563L124.359 151.995C125.958 150.776 129.359 146.563 133.094 141.016C135.75 136.776 136.625 132.334 134.885 130.646C134.458 130.037 133.87 129.724 132.901 129.771C131.26 130.021 129.276 131.599 126.755 133.834L125.135 135.792C124.912 135.86 125.068 135.568 125.38 134.985L128.484 128.151C129.453 125.651 130.396 123.891 131.182 122.427L131.88 121.48L132.422 120.823L134.021 119.605L134.63 119.177L134.787 118.886L139.151 114.62L143.208 110.943L146.266 108.058C147.573 106.683 162.885 92.2451 164.729 90.2139L165.88 89.1305C166.26 88.7712 166.573 88.1826 166.505 87.9587C166.438 87.7347 166.823 87.3753 167.203 87.0107L168.734 85.568L171.214 82.3649C172.135 81.3493 173.688 79.1618 174.698 77.6305L176.953 74.4951C177.875 73.4795 179.469 69.8076 179.896 67.9587C180.323 66.1097 179.917 64.7608 178.745 64.1305C178.089 63.5889 176.13 64.4222 174.24 65.4847L171.964 66.9066C170.906 67.4691 169.083 68.7555 168.318 69.4795L166.651 70.4743C162.844 73.3389 157.802 77.8024 154.625 81.9535L152.557 84.0524L151.162 85.9482L148.526 89.443L144.182 95.417L139.573 102.948L136.354 108.584L130.682 119.136L126.115 122.724L123.365 125.026L120.167 127.459C119.401 128.183 118.865 128.839 118.708 129.131C118.458 129.943 118.818 130.323 119.719 130.052C120.849 129.714 124.651 126.849 125.578 125.834C125.891 125.245 127.266 124.099 128.479 123.24C128.234 124.052 127.917 124.636 127.604 125.224L125.938 128.672L122.677 135.797C121.016 139.245 119.328 143.438 118.813 145.808C118.495 146.391 118.698 147.068 118.839 147.516C119.042 148.193 119.266 148.125 119.714 147.99L120.167 147.855C120.844 147.651 121 147.36 121.245 146.547C121.359 145.287 122.484 142.49 124.037 140.302C126.755 136.287 131.214 131.506 132.703 131.552C133.151 131.417 133.787 132.698 133.672 133.959C133.271 135.063 133.109 135.36 132.276 135.855C130.927 136.261 127.932 139.375 126.063 142.146C123.5 145.87 122.198 149.698 122.964 151.438L123.302 152.563ZM134.578 115.75C134.51 115.526 134.443 115.302 134.672 115.235L136.401 112.011C139.302 106.959 144.635 97.7399 144.859 97.6722C145.089 97.5993 145.557 96.7243 146.188 95.5524C148.302 91.9639 153.635 85.1983 157.714 80.7816C161.089 77.3076 165.75 73.1983 169.016 70.9899L172.057 68.8441C172.37 68.2607 176.063 66.6566 176.807 66.6774C177.031 66.6097 177.62 66.9222 177.688 67.1514C177.755 67.3753 177.891 67.8233 177.734 68.1201L177.24 69.7399C176.766 70.6201 176.589 71.6566 176.365 71.7243L174.875 74.1357C173.932 75.8962 171.682 79.0316 169.521 81.6462L164.12 88.1878L159.979 92.3805L156.823 95.7868C155.901 96.8024 154.599 98.1774 153.99 98.6097C153.38 99.0368 152.391 99.8285 151.625 100.547L148.021 104.089L143.901 107.542C143.135 108.261 138.927 112.235 138.703 112.302C138.474 112.37 137.552 113.386 136.406 114.464C135.255 115.547 134.646 115.98 134.578 115.75ZM124.583 149.474C123.906 149.677 126.292 144.537 127.62 142.417C129.24 140.453 131.469 138.063 132.146 137.86C132.37 137.792 132.37 137.792 132.281 138.313C131.563 140 125.104 149.563 124.583 149.474Z" fill="#FAF7F2"/>
<path d="M149.36 137.572C152.521 136.635 156.255 131.848 156.849 129.713L157.458 129.286C159.849 129.067 162.62 128.494 165.557 127.624C168.714 126.687 175.667 123.65 179.802 120.218L181.563 118.713C181.948 118.353 182.042 117.838 181.682 117.452C181.323 117.067 180.646 117.27 180.485 117.562C176.735 120.635 172.307 123.905 164.636 126.176C162.833 126.713 160.958 127.02 159.474 126.973C158.953 126.879 158.438 126.786 157.469 126.827L156.865 124.796C156.802 124.572 156.667 124.119 156.375 123.963C156.016 123.577 155.203 123.327 154.526 123.53L151.526 124.171L151.011 124.077L149.406 125.291L146.708 130.26C146.229 131.135 145.016 136.155 146.677 137.629C147.625 138.333 147.625 138.333 149.36 137.572ZM153.974 126.635C153.458 126.546 153.167 126.385 153.615 126.249C153.844 126.187 154.136 126.343 154.36 126.275C154.427 126.504 154.495 126.728 153.974 126.635ZM149.438 135.338C149.214 135.405 147.974 134.546 149.203 131.239C150.021 129.03 150.636 128.609 151.313 128.405L152.412 128.817L153.969 129.093C154.261 129.249 155.229 129.208 153.031 132.556C151.537 134.963 149.662 135.275 149.438 135.338Z" fill="#FAF7F2"/>
<path d="M223.438 194.753C224.058 194.336 228.36 187.79 230.047 184.159L238.318 166.279L239.943 162.42L243.854 153.54L246.302 148.232C247 146.336 252.724 134.274 253.052 133.696L254.433 131.613L258.24 125.935C258.735 125.066 259.292 124.425 259.521 124.363L261.292 121.925C261.886 120.545 262.61 119.613 262.672 119.842C262.735 120.066 262.896 119.779 263 119.264C263.328 118.685 263.657 118.107 263.886 118.045C264.11 117.982 264.339 117.92 264.276 117.691C264.214 117.467 264.381 117.175 264.604 117.113C264.834 117.05 265.224 116.701 265.162 116.472C265.328 116.185 265.823 115.316 266.375 114.675L267.818 112.816C268.313 111.951 271.302 107.717 272.969 105.795L276.016 101.79C277.36 100.446 278.245 99.2271 278.532 99.3938C278.761 99.3313 278.761 99.3313 278.698 99.1021C278.636 98.8782 278.964 98.3 279.193 98.2375L280.302 96.9563L283.209 94.2063C284.547 92.8625 286.115 91.4563 286.443 90.8782C286.839 90.5292 287.391 89.8886 287.844 89.7636L289.474 88.5865C291.104 87.4094 291.266 87.1177 292.568 86.5188C294.318 85.7948 294.157 86.0813 292.839 88.3938L291.745 90.649C291.417 91.2271 289.625 92.6907 287.834 94.1594C286.037 95.6282 284.245 97.0917 284.308 97.3209L283.464 97.7948C283.235 97.8573 281.506 99.5552 279.381 101.597C275.136 105.691 274.537 107.071 275.287 109.795L275.886 111.097L277.474 110.659C278.834 110.284 279.62 109.581 282.688 106.545C286.151 103.159 289.323 99.6073 289.532 98.5709C289.693 98.2844 290.641 97.2896 291.427 96.5917C291.589 96.3 292.084 95.4355 292.349 94.6282C292.948 93.2427 294.245 92.6438 297.479 86.6334C297.417 86.4094 297.354 86.1802 297.459 85.6646C297.849 85.3157 297.724 84.8625 297.662 84.6334L297.412 83.7271C296.875 82.6542 295.391 82.5761 293.474 83.5865C291.328 84.6646 286.381 87.9719 286.276 88.4875C286.339 88.7115 285.948 89.0657 285.495 89.1907C285.266 89.2532 284.646 89.6646 284.485 89.9563L282.032 92.5761C278.407 96.2532 273.172 102.081 272.573 103.467L271.688 104.685L270.245 106.54C267.979 109.847 265.099 113.566 264.933 113.852C264.703 113.915 264.479 113.977 264.542 114.206C264.667 114.659 262.339 117.738 260.604 119.43C259.886 120.357 259.104 121.06 259.042 120.836L259.964 118.873L261.157 116.107C261.261 115.592 266.818 103.821 269.224 99.2584L271.797 94.4094L273.422 90.5448C274.084 89.3886 274.516 88.2948 274.74 88.2323C274.969 88.1698 275.136 87.8834 275.235 87.3677C275.172 87.1386 275.604 86.0448 276.266 84.8886L277.953 81.2532C278.386 80.1594 279.209 78.7167 279.703 77.8469C280.589 76.6282 280.563 75.6594 279.761 75.3938C279.12 74.8365 279.12 74.8365 277.907 76.6334C277.349 77.274 275.703 80.1646 274.282 82.9927L253.99 124.659C253.724 125.467 253.229 126.331 252.938 126.165C252.714 126.227 252.714 126.227 252.776 126.456C252.959 127.139 250.802 132.607 248.495 136.654C247.407 138.904 246.026 140.993 244.688 142.336C244.131 142.972 243.469 144.133 243.141 144.711C242.584 145.347 242.256 145.925 242.026 145.988C241.802 146.05 241.636 146.342 241.698 146.566L239.104 150.451C237.662 152.31 236.344 154.623 236.016 155.201L233.974 158.441C232.537 160.3 228.417 167.529 226.235 172.029C224.094 175.79 221.75 183.258 221.922 185.654L221.532 188.685L221.433 191.889C221.641 193.534 222.756 194.941 223.438 194.753ZM278.026 107.336C277.469 107.977 277.469 107.977 278.193 107.05C278.584 106.696 278.912 106.118 278.912 106.118C278.849 105.889 279.177 105.31 279.735 104.675L281.568 102.461C282.125 101.821 282.683 101.18 283.136 101.055C283.589 100.93 283.979 100.581 284.146 100.295C284.084 100.066 284.703 99.6542 284.927 99.5917C285.381 99.4667 285.776 99.1125 285.714 98.8886C285.651 98.6594 285.813 98.373 286.271 98.248C286.662 97.8938 287.052 97.5448 286.99 97.3157C286.927 97.0917 286.927 97.0917 287.157 97.0292C287.443 97.1907 287.339 97.7115 286.948 98.0605C285.86 100.31 280.563 105.909 278.026 107.336ZM223.948 189.488C223.761 188.81 224.084 185.55 224.537 182.743C224.964 178.967 226.526 174.878 229.594 169.159L235.526 158.748L237.396 155.795L242.094 148.899C243.698 146.753 243.865 146.461 243.927 146.691C243.99 146.915 242.506 149.519 242.282 149.581C242.052 149.644 242.115 149.868 242.177 150.097C242.302 150.55 241.542 152.222 239.854 155.857L235.615 165.31L234.422 168.076L232.797 171.941L229.917 178.342C226.87 185.029 224.073 189.946 223.948 189.488Z" fill="#FAF7F2"/>
<path d="M320.478 94.0124C326.207 91.7519 335.999 86.4655 344.061 80.1738C349.301 76.0957 350.212 75.8561 356.973 70.1582L357.53 69.5228C360.29 67.0801 357.957 67.4603 357.108 67.929C357.165 68.1582 343.738 78.0696 343.801 78.2936C336.238 83.7207 328.619 88.9186 318.113 92.4499C314.249 93.4811 312.535 93.4499 311.884 91.9238C311.478 91.2988 310.415 89.1478 311.415 87.4186C311.629 86.3873 312.02 86.0436 313.494 85.1634C315.811 83.8144 317.78 82.0696 320.915 78.3144C323.889 74.8405 325.113 73.054 324.707 72.429C323.889 71.1894 321.9 71.9603 318.629 74.2936C314.509 77.1009 310.369 82.5853 309.066 86.8301C308.686 88.1478 308.415 88.9499 308.598 89.6321C308.535 93.0592 310.176 95.5436 314.28 95.4238C316.223 95.3926 317.129 95.1478 320.478 94.0124ZM313.509 82.4811C313.551 81.7363 316.691 77.9811 318.16 77.1009C319.343 76.054 321.374 74.5384 321.494 74.9915C321.327 75.2832 318.525 78.4655 316.78 80.1478C314.645 82.179 313.176 83.054 313.509 82.4811Z" fill="#FAF7F2"/>
<path d="M301.793 165.769C304.012 164.952 307.918 162.228 310.861 159.519L313.574 156.863L315.491 154.905L319.777 149.9L327.439 140.118L335.887 128.681C339.658 123.561 345.772 113.457 348.288 108.181C349.517 105.431 351.09 103.077 351.257 102.79C351.704 101.702 356.517 97.7695 360.486 95.2747C361.335 94.8111 361.96 94.4049 362.126 94.1184C362.293 93.832 362.585 93.9986 362.809 93.9414C363.095 94.108 363.491 93.7643 363.887 93.4153C364.059 93.1289 364.908 92.6653 365.366 92.5455C366.048 92.3684 366.668 91.9622 366.84 91.6757C367.064 91.6132 368.085 90.8632 369.449 90.5091L389.553 80.8893C390.408 80.4257 392.397 79.6601 394.215 79.1861C396.892 78.2486 397.116 78.1861 396.84 78.9882C396.277 79.6236 396.684 80.2434 397.652 80.2382C398.392 80.2851 398.85 80.1653 400.095 79.358L401.908 77.9101C402.137 77.8528 402.303 77.5664 402.699 77.2174C403.204 76.358 402.512 75.5664 401.48 75.3476C400.283 75.4153 396.928 76.5351 394.486 77.4153L389.428 79.4622L377.272 85.0664C369.72 88.733 361.772 92.7539 357.178 95.6549L353.21 98.1445C352.418 98.8372 362.1 80.0247 363.158 77.5611L365.111 72.9205L366.605 68.3945C367.048 67.3059 367.267 66.2747 367.21 66.0507C367.147 65.8216 366.803 65.4257 366.626 64.7434C366.147 62.9205 363.923 62.7747 361.199 64.457C359.725 65.3268 356.783 68.0351 355.658 69.3059L354.022 71.4309C353.855 71.7174 353.397 71.8372 353.001 72.1861L352.329 73.332C351.6 74.2539 352.012 75.8476 352.876 76.3528C353.449 76.6861 356.694 76.082 357.262 75.4518L362.132 71.7486C363.147 70.9986 353.418 90.5559 350.855 96.5716C348.793 101.728 347.21 103.113 345.736 103.983C344.882 104.452 343.637 105.264 343.298 105.837C342.678 106.243 342.111 106.874 341.887 106.936C341.371 106.827 330.449 116.238 327.678 118.66C326.553 119.931 325.533 120.681 325.303 120.738C325.074 120.801 324.908 121.087 324.908 121.087C324.97 121.316 324.402 121.947 323.783 122.353C323.158 122.759 321.632 124.374 320.335 125.926L317.454 128.863C316.496 129.842 312.939 133.931 310.637 137.207C306.97 141.811 300.251 154.259 300.376 155.686C300.439 155.915 300.329 156.431 300.163 156.717L299.934 156.775C299.658 157.577 299.376 158.379 299.043 158.952C299.111 160.15 298.892 161.181 298.449 162.269L298.637 163.921C298.944 166.03 299.574 166.592 301.793 165.769ZM355.189 74.0455C354.507 74.2226 354.507 74.2226 355.012 73.3632C355.684 72.2122 357.944 69.6809 359.98 68.1757C361.564 66.7903 363.783 65.9674 363.96 66.6549C364.257 67.7903 357.465 73.4518 355.189 74.0455ZM300.861 164.072C300.345 163.962 300.387 162.249 300.762 159.962C302.355 153.952 303.861 150.4 307.23 144.66C310.319 139.723 311.048 138.801 315.048 133.624C317.079 131.15 324.871 122.801 325.324 122.681L327.074 121.009C327.809 120.087 330.35 117.723 332.73 115.644C334.934 113.853 336.918 112.118 336.855 111.894C337.022 111.608 337.251 111.546 337.71 111.426L338.559 110.962C338.501 110.733 339.517 109.983 340.309 109.29L342.975 107.379C345.012 105.874 345.241 105.816 345.361 106.269C345.418 106.499 345.251 106.785 345.251 106.785C345.022 106.848 344.855 107.134 344.855 107.134C345.152 108.269 339.033 118.374 331.392 130.092L326.329 137.733C325.658 138.884 324.757 140.092 324.194 140.723L322.73 142.566C321.491 144.348 315.345 151.54 314.887 151.66C314.663 151.717 314.491 152.004 314.553 152.233C314.382 152.519 314.215 152.806 313.986 152.868C313.762 152.926 312.798 153.905 311.673 155.171C308.684 158.629 306.475 160.415 303.814 162.327L300.861 164.072Z" fill="#FAF7F2"/>
<path d="M391.207 70.0207C392.181 70.0155 393.092 69.7811 393.941 69.3228L394.629 69.1457C394.629 69.1457 398.499 67.1821 402.301 64.0259L413.775 54.7707C414.17 54.4269 413.999 53.7446 413.483 53.63L413.196 53.4634L412.514 53.6353L412.118 53.9842C403.196 60.88 397.061 65.3644 394.269 66.8071C394.269 66.8071 391.54 68.479 391.082 67.6248C389.644 65.8071 390.597 62.8905 391.389 61.2342C392.009 59.8592 393.587 56.5415 390.853 57.2394C390.394 57.3592 389.655 57.3071 389.592 57.078C389.134 56.2238 388.509 56.63 385.16 59.6717C382.207 62.3696 378.577 66.2134 376.426 69.1925C375.519 70.3957 375.181 70.9686 375.353 71.6509C375.644 72.7915 376.389 72.8436 377.759 72.4946C378.894 72.203 382.868 68.755 384.342 66.9217C385.759 64.8592 388.311 62.505 388.374 62.7342L388.097 64.505C387.816 65.3071 387.821 66.2759 387.993 66.9582C388.004 67.9269 388.176 68.6144 389.092 69.3488C389.722 69.9165 390.295 70.255 391.207 70.0207ZM377.686 70.328L378.821 69.0675C379.837 67.3488 382.842 63.9061 385.457 61.7811C387.384 59.828 387.842 59.7134 387.957 60.1665C388.014 60.3957 387.446 61.0259 386.821 61.4321C385.233 62.8071 384.499 63.7238 384.16 64.2967C383.816 64.8696 380.53 68.1405 378.936 69.5207L377.686 70.328Z" fill="#FAF7F2"/>
<path d="M424.485 51.5814C424.313 51.8679 424.428 52.321 424.771 52.7221C425.11 53.1231 425.339 53.0658 426.251 52.8366C428.079 52.3835 428.423 49.8731 426.886 48.5606C425.23 46.7898 421.292 49.4668 417.35 53.1179L414.438 56.0241L414.61 55.7377C414.954 54.2012 414.954 54.2012 414.042 53.4564C412.844 52.545 412.214 52.9408 411.188 55.6231L410.1 58.0762C409.928 59.3314 408.782 62.5241 408.1 63.6648L408.271 64.3523C407.985 65.1491 408.667 65.9512 409.579 65.7221C409.865 65.8939 410.438 65.2637 411.063 64.8679L411.235 64.5814L412.782 61.045L412.954 60.7585C416.324 55.8002 425.287 47.9877 424.485 51.5814ZM466.032 40.2585C466.089 40.4877 452.501 50.1752 452.558 50.4043C444.907 55.7064 437.204 60.7793 426.641 64.1387C422.761 65.1023 420.594 65.1596 419.969 63.6179C419.511 62.7637 419.511 61.7898 419.912 58.5398C420.256 56.9981 416.376 56.9981 416.261 59.4512C416.146 63.8418 417.225 67.2116 422.074 67.2168C424.016 67.2168 425.615 66.8158 428.98 65.7377C434.745 63.571 444.62 58.446 452.787 52.2898C458.094 48.3002 459.011 48.071 465.86 42.4825L466.433 41.8575C469.23 39.4616 466.891 39.8054 466.032 40.2585Z" fill="#FAF7F2"/>
<path d="M499.031 48.5425C504.813 46.4331 514.74 41.4019 522.964 35.3289C528.365 31.6154 529.229 31.1727 536.135 25.6519L536.708 25.0269C537.115 24.6935 537.573 24.5841 537.693 24.0685C537.813 23.5581 537.297 23.4383 537.016 23.2612L536.328 23.4279C535.927 23.7664 535.469 23.8758 535.063 24.2144L533.047 25.9019L532.188 26.3498L525.401 31.3602L522.646 32.9852C514.943 38.2091 507.297 43.6675 496.708 46.9227C492.818 47.8498 491.104 47.7769 489.807 46.3914C488.901 45.6414 488.682 44.7248 488.474 42.8394C488.156 40.4956 489.443 37.7716 490.594 36.5269C491.349 35.6206 491.411 34.881 490.563 34.3602C489.766 34.0633 487.818 35.0164 487.24 35.6362C486.719 36.4852 476.953 42.2039 475.755 42.2508C475.016 42.1831 475.016 42.1831 475.427 40.8758C475.615 39.6206 475.557 39.3914 474.99 39.0477C474.141 38.5216 472.995 38.7977 471.896 40.2664L470.974 41.4591L468.031 44.3341L467.682 44.9019L466.875 45.5789C466.646 45.6362 466.073 46.256 465.786 46.0789C465.734 45.855 466.307 45.23 466.484 44.9487C468.104 42.6258 469.391 39.9019 468.995 39.2664L468.833 38.5789C468.724 38.1258 467.068 38.2769 466.667 38.6154C466.318 39.1831 461.656 48.0373 461.245 49.3446C460.885 50.881 460.823 51.6206 461.672 52.1414C462.807 52.8394 464.016 51.8237 467.708 48.0425C470.365 44.9904 472.38 43.2977 471.854 44.1466C471.682 44.4331 472.021 44.8341 472.589 45.1831C473.667 45.6519 473.896 45.5946 475.495 45.2144C477.5 44.4904 482.667 41.8081 483.646 40.8498C484.276 40.4539 484.682 40.1154 484.734 40.3446C484.964 40.2925 485.182 41.2091 485.172 42.1779C485 47.5373 487.26 49.9019 492.109 49.9539C494.052 49.9748 495.651 49.5894 499.031 48.5425Z" fill="#FAF7F2"/>
<path d="M535.878 34.7221C539.086 33.9826 543.112 29.4305 543.836 27.3367L544.471 26.9461C546.867 26.8784 549.669 26.4721 552.654 25.7846C555.862 25.0451 562.987 22.4409 567.326 19.269L569.18 17.8732C569.586 17.5399 569.706 17.0294 569.372 16.6232C569.039 16.2169 568.352 16.3784 568.175 16.6596C564.242 19.4982 559.617 22.493 551.826 24.2846C549.987 24.7117 548.102 24.9044 546.622 24.7586C546.112 24.6388 545.596 24.5138 544.628 24.4982L544.154 22.4305C544.102 22.2013 543.997 21.743 543.711 21.5659C543.378 21.1649 542.586 20.8628 541.899 21.019L538.862 21.4774L538.352 21.3524L536.675 22.4669L533.675 27.2586C533.149 28.1076 531.628 33.0451 533.195 34.6128C534.096 35.3732 534.096 35.3732 535.878 34.7221ZM541.154 24.0867C540.643 23.9669 540.362 23.7899 540.82 23.6805C541.05 23.6284 541.331 23.8055 541.56 23.7534C541.612 23.9826 541.664 24.2117 541.154 24.0867ZM536.091 32.4982C535.862 32.5503 534.68 31.618 536.112 28.3888C537.065 26.2378 537.695 25.8524 538.388 25.6909L539.461 26.1701L540.997 26.5399C541.279 26.7169 542.247 26.7326 539.846 29.9409C538.206 32.2534 536.32 32.4461 536.091 32.4982Z" fill="#FAF7F2"/>
<path d="M516.106 117.279C516.746 116.893 521.351 110.555 523.21 107.003L532.314 89.5338L534.116 85.7525L538.439 77.0702L541.137 71.8827C541.924 70.0181 548.205 58.2473 548.564 57.6848L550.038 55.664L554.111 50.1692C554.647 49.3254 555.231 48.7161 555.46 48.664L557.345 46.3098C558.007 44.9557 558.772 44.065 558.819 44.2942C558.871 44.5234 559.049 44.2421 559.179 43.7317C559.533 43.1692 559.892 42.6067 560.121 42.5546C560.351 42.5025 560.58 42.4504 560.528 42.2213C560.476 41.9921 560.653 41.7109 560.882 41.6588C561.111 41.6119 561.522 41.2786 561.47 41.0494C561.647 40.7682 562.184 39.9244 562.767 39.3098L564.293 37.5234C564.83 36.6796 568.012 32.5911 569.767 30.7473L573.002 26.8879C574.403 25.6119 575.345 24.4348 575.627 24.6119C575.856 24.5598 575.856 24.5598 575.804 24.3307C575.757 24.1015 576.111 23.539 576.34 23.4869L577.512 22.2629L580.543 19.6536C581.944 18.3775 583.575 17.0442 583.934 16.4817C584.34 16.1536 584.924 15.539 585.387 15.4348L587.069 14.3359C588.752 13.2317 588.929 12.9557 590.252 12.414C592.038 11.7734 591.861 12.0546 590.434 14.3046L589.241 16.4973C588.882 17.0598 587.022 18.4452 585.163 19.8254C583.304 21.2057 581.444 22.5859 581.496 22.815L580.627 23.2525C580.397 23.3046 578.59 24.914 576.371 26.8567C571.939 30.7421 571.278 32.0963 571.897 34.8515L572.434 36.1796L574.038 35.8202C575.418 35.5077 576.231 34.8463 579.444 31.9557C583.059 28.7317 586.397 25.3359 586.653 24.315C586.83 24.0338 587.825 23.0859 588.637 22.4192C588.814 22.1379 589.351 21.2994 589.658 20.5077C590.314 19.1536 591.642 18.6119 595.153 12.7629C595.101 12.5338 595.049 12.3046 595.179 11.7942C595.585 11.4609 595.481 11.0025 595.429 10.7734L595.226 9.85149C594.736 8.75774 593.257 8.6067 591.293 9.52857C589.101 10.5025 584.002 13.5754 583.877 14.0859C583.929 14.315 583.522 14.6484 583.059 14.7525C582.83 14.7994 582.194 15.1848 582.017 15.4661L579.444 17.9713C575.647 21.4765 570.147 27.0494 569.486 28.4036L568.543 29.5754L567.017 31.3671C564.595 34.5598 561.543 38.1379 561.361 38.4192C561.132 38.4713 560.903 38.5234 560.955 38.7525C561.059 39.2109 558.59 42.1744 556.778 43.7838C556.017 44.6796 555.2 45.3463 555.147 45.1171L556.163 43.2004L557.486 40.4921C557.616 39.9817 563.72 28.4869 566.34 24.0442L569.137 19.315L570.939 15.539C571.653 14.414 572.137 13.3411 572.366 13.289C572.595 13.2369 572.772 12.9557 572.903 12.4452C572.851 12.2161 573.335 11.1432 574.043 10.0182L575.903 6.47128C576.382 5.39836 577.272 3.99211 577.809 3.14836C578.752 1.97128 578.772 1.00253 577.981 0.700447C577.371 0.111905 577.371 0.111905 576.069 1.85149C575.486 2.46607 573.705 5.27336 572.153 8.03378L549.924 48.7004C549.616 49.4921 549.085 50.3307 548.804 50.1536C548.575 50.2057 548.575 50.2057 548.627 50.4348C548.778 51.1223 546.366 56.4869 543.871 60.4244C542.674 62.6171 541.2 64.6379 539.799 65.914C539.21 66.5286 538.502 67.6536 538.142 68.2161C537.559 68.8307 537.2 69.3932 536.97 69.44C536.741 69.4921 536.564 69.7734 536.616 70.0025L533.84 73.7629C532.314 75.5494 530.887 77.7994 530.533 78.3619L528.345 81.5025C526.814 83.2942 522.361 90.315 519.97 94.7109C517.658 98.3619 514.965 105.716 515.017 108.117L514.491 111.128L514.241 114.32C514.371 115.976 515.418 117.43 516.106 117.279ZM574.752 32.5234C574.163 33.1379 574.163 33.1379 574.929 32.2473C575.335 31.914 575.689 31.3515 575.689 31.3515C575.642 31.1223 575.996 30.5598 576.58 29.9452L578.517 27.8254C579.101 27.2109 579.689 26.5963 580.147 26.4921C580.606 26.3932 581.017 26.0598 581.194 25.7786C581.142 25.5494 581.778 25.164 582.007 25.1119C582.465 25.0077 582.877 24.6744 582.825 24.4452C582.772 24.2161 582.95 23.9348 583.408 23.8359C583.819 23.5025 584.226 23.1692 584.174 22.94C584.121 22.7109 584.121 22.7109 584.351 22.6588C584.632 22.8359 584.507 23.3463 584.101 23.6796C582.903 25.8775 577.351 31.2213 574.752 32.5234ZM516.866 112.044C516.71 111.357 517.189 108.112 517.772 105.331C518.377 101.581 520.132 97.5702 523.465 91.9973L529.877 81.8827L531.887 79.0234L536.903 72.3515C538.606 70.2838 538.783 70.0025 538.835 70.2317C538.887 70.4609 537.283 72.9869 537.054 73.039C536.825 73.0911 536.877 73.3202 536.929 73.5494C537.033 74.0077 536.194 75.6432 534.335 79.1952L529.658 88.44L528.335 91.1484L526.528 94.9296L523.351 101.185C519.996 107.726 516.965 112.503 516.866 112.044Z" fill="#FAF7F2"/>
<path d="M618.558 15.7658C619.532 15.7918 620.449 15.5939 621.319 15.1616L622.006 15.0106C622.006 15.0106 625.944 13.1929 629.86 10.1668L641.662 1.3335C642.069 1.00537 641.918 0.312662 641.407 0.182454L641.131 0.00537109L640.439 0.156413L640.032 0.484538C630.871 7.05745 624.574 11.3231 621.735 12.6616C621.735 12.6616 618.949 14.2345 618.517 13.3647C617.147 11.5002 618.204 8.61995 619.053 6.98975C619.725 5.64079 621.418 2.38037 618.662 2.97933C618.204 3.07829 617.459 3.00016 617.412 2.771C616.98 1.90121 616.34 2.28141 612.886 5.20329C609.84 7.79704 606.074 11.5054 603.819 14.4064C602.866 15.5783 602.506 16.1356 602.657 16.8283C602.907 17.9741 603.647 18.0522 605.027 17.7554C606.178 17.5054 610.272 14.2033 611.814 12.422C613.298 10.4116 615.939 8.15121 615.985 8.38037L615.647 10.1408C615.34 10.9272 615.308 11.9012 615.459 12.5887C615.428 13.5575 615.579 14.2502 616.47 15.0158C617.079 15.6043 617.642 15.9637 618.558 15.7658ZM605.037 15.5835L606.215 14.3647C607.293 12.6825 610.418 9.35433 613.105 7.32308C615.105 5.44287 615.564 5.34391 615.662 5.80225C615.715 6.03141 615.126 6.64079 614.485 7.021C612.85 8.34391 612.079 9.23454 611.72 9.79183C611.36 10.3543 607.954 13.5054 606.314 14.8231L605.037 15.5835Z" fill="#FAF7F2"/>
</svg>
