<svg width="632" height="314" viewBox="0 0 632 314" fill="#edeae1" xmlns="http://www.w3.org/2000/svg">
<path d="M0.953125 202.551H42.6667V199.119C34.4792 196.744 32.1042 190.671 32.1042 169.025V96.4263C46.3594 85.5981 60.0885 77.4159 75.1354 77.4159C95.4635 77.4159 105.234 91.145 105.234 117.28V169.025C105.234 190.671 102.594 196.744 94.6719 199.119V202.551H136.385V199.119C128.203 196.744 125.823 190.671 125.823 169.025V112.525C125.823 106.718 125.297 101.442 124.24 96.9523C138.76 85.5981 152.49 77.4159 167.536 77.4159C188.13 77.4159 197.63 91.145 197.63 117.28V169.025C197.63 190.671 195.255 196.744 187.073 199.119V202.551H228.786V199.119C220.865 196.744 218.224 190.671 218.224 169.025V112.525C218.224 82.6971 205.026 68.7023 179.417 68.7023C159.615 68.7023 139.286 80.8481 123.448 93.52C118.698 76.6242 106.286 68.7023 86.7552 68.7023C67.7448 68.7023 47.9427 80.0565 32.1042 92.7284V70.2856L29.7292 68.4419L0.953125 81.1138V84.0148C8.08333 87.1815 11.5156 89.8221 11.5156 108.301V169.025C11.5156 190.671 9.13542 196.744 0.953125 199.119V202.551Z"  />
<path d="M332.551 204.666C340.468 204.666 356.306 195.421 375.051 177.734L372.942 175.093C362.119 185.129 354.197 189.879 348.65 189.879C343.9 189.879 341.525 186.973 341.525 181.958C341.525 172.984 347.598 156.879 358.947 135.234C369.509 115.166 381.916 95.1034 392.738 77.9419C394.587 75.3013 393.53 73.1919 390.363 73.1919L376.634 72.9263C374.525 72.9263 373.202 73.9836 371.884 75.8325C367.66 82.6971 362.91 90.6138 357.895 98.8013C340.733 122.822 321.723 146.056 305.358 163.218C288.988 180.374 276.582 190.405 267.603 190.405C261.004 190.405 258.895 186.181 258.895 181.958C258.895 163.478 305.884 105.926 305.884 82.1659C305.884 76.0981 302.452 68.4419 292.155 68.4419C283.181 68.4419 267.343 77.9419 248.332 95.369L250.447 98.0096C262.061 87.1815 270.509 82.9575 276.051 82.9575C280.541 82.9575 282.389 85.3377 282.389 89.5617C282.389 109.89 235.134 165.593 235.134 187.504C235.134 198.062 244.108 204.666 253.087 204.666C266.551 204.666 286.082 189.088 307.999 165.593C319.082 153.713 330.962 139.718 342.582 124.671C329.379 148.431 318.291 172.718 318.291 189.088C318.291 195.421 321.197 204.666 332.551 204.666Z"  />
<path d="M394.859 202.551H493.328L494.119 163.478H491.744C488.312 189.088 474.848 198.593 456.895 198.593H418.354L491.744 73.4575V70.5513H401.984L397.234 103.551L399.609 104.077C408.322 81.6398 417.296 74.5096 434.192 74.5096H468.776L394.859 199.645V202.551Z"  />
<path d="M608.165 202.551H631.133V199.119C622.951 196.744 620.576 190.671 620.576 169.025V116.223C620.576 86.3897 605.79 68.7021 573.847 68.7021C550.878 68.7021 531.607 80.0563 516.56 98.8011L518.935 100.91C532.133 84.8063 547.446 77.4157 563.284 77.4157C585.727 77.4157 598.925 89.2959 600.248 114.905L565.925 124.145C534.508 132.853 506.79 143.15 506.79 170.608C506.79 193.312 524.211 205.192 543.748 205.192C569.883 205.192 592.06 179.582 600.248 147.114V194.629C600.248 199.645 602.883 202.551 608.165 202.551ZM526.592 163.218C526.326 141.567 547.446 132.853 566.982 127.312L600.248 118.338V126.254C599.982 153.973 581.764 189.614 553.519 189.614C538.472 189.614 526.592 180.374 526.592 163.218Z"  />
<path d="M35.2829 290.805C47.4808 290.805 57.1579 283.138 64.1995 274.336L63.1943 273.331C56.7829 280.622 50.1214 285.273 39.9339 285.273C23.3402 285.273 11.7777 273.456 11.7777 255.226C11.7777 240.018 20.8298 230.211 33.1475 227.695C43.835 234.107 49.8662 237.503 52.6318 237.503C56.9079 237.503 59.7985 234.107 59.7985 232.221C59.7985 228.831 50.3714 225.81 39.9339 225.81C20.8298 225.81 5.36621 241.023 5.36621 259.503C5.36621 280.622 21.4548 290.805 35.2829 290.805Z"  />
<path d="M102.288 290.805C117.121 290.805 134.47 279.867 134.47 258.372C134.47 235.867 117.876 225.81 102.288 225.81C85.0638 225.81 69.9805 239.263 69.9805 258.247C69.9805 280.622 86.6992 290.805 102.288 290.805ZM76.5169 253.471C76.5169 238.888 84.6888 227.95 99.5221 227.95C116.366 227.95 128.309 246.93 128.309 263.398C128.309 277.482 120.012 288.419 105.428 288.419C88.5846 288.419 76.5169 270.69 76.5169 253.471Z"  />
<path d="M142.637 289.549H159.23V288.164C155.71 287.289 154.204 285.148 154.204 273.586V239.013C160.991 233.857 168.913 229.081 177.085 229.081C187.267 229.081 192.923 235.367 192.923 249.07V273.586C192.923 285.148 191.413 287.289 187.897 288.164V289.549H204.491V288.164C200.97 287.289 199.46 285.148 199.46 273.586V246.805C199.46 244.164 199.21 241.779 198.704 239.513C205.746 234.107 213.793 229.081 222.34 229.081C232.522 229.081 238.184 235.367 238.184 249.07V273.586C238.184 285.148 236.673 287.289 233.152 288.164V289.549H249.746V288.164C246.225 287.289 244.72 285.148 244.72 273.586V246.805C244.72 233.226 238.684 225.81 225.736 225.81C217.064 225.81 206.751 231.466 198.454 238.133C196.194 230.086 190.283 225.81 180.475 225.81C172.178 225.81 162.376 231.091 154.204 237.253V226.565L153.324 225.81L142.637 230.461V231.596C146.408 233.226 147.668 234.362 147.668 244.669V273.586C147.668 285.148 146.158 287.289 142.637 288.164V289.549Z"  />
<path d="M255.774 289.549H272.368V288.164C268.847 287.289 267.342 285.148 267.342 273.586V239.013C274.129 233.857 282.05 229.081 290.222 229.081C300.405 229.081 306.061 235.367 306.061 249.07V273.586C306.061 285.148 304.55 287.289 301.035 288.164V289.549H317.629V288.164C314.108 287.289 312.597 285.148 312.597 273.586V246.805C312.597 244.164 312.347 241.779 311.842 239.513C318.884 234.107 326.931 229.081 335.478 229.081C345.66 229.081 351.321 235.367 351.321 249.07V273.586C351.321 285.148 349.811 287.289 346.29 288.164V289.549H362.884V288.164C359.363 287.289 357.858 285.148 357.858 273.586V246.805C357.858 233.226 351.821 225.81 338.873 225.81C330.202 225.81 319.889 231.466 311.592 238.133C309.332 230.086 303.42 225.81 293.613 225.81C285.316 225.81 275.514 231.091 267.342 237.253V226.565L266.462 225.81L255.774 230.461V231.596C259.545 233.226 260.806 234.362 260.806 244.669V273.586C260.806 285.148 259.295 287.289 255.774 288.164V289.549Z"  />
<path d="M392.797 290.68C403.61 290.68 412.412 283.388 418.068 277.232V284.518C418.068 288.669 418.948 289.549 421.209 289.549H429.636V288.164C426.115 287.289 424.605 285.148 424.605 273.586V226.565L423.724 225.81L413.037 230.461V231.596C416.808 233.226 418.068 234.362 418.068 244.669V274.966C413.037 280.878 405.62 287.034 396.193 287.034C385.631 287.034 379.599 281.003 379.599 265.664V226.565L378.719 225.81L368.032 230.461V231.596C371.803 233.226 373.063 234.362 373.063 244.669V268.555C373.063 282.008 379.724 290.68 392.797 290.68Z"  />
<path d="M437.171 289.549H453.765V288.164C450.244 287.289 448.739 285.148 448.739 273.586V239.388C454.77 234.232 462.942 229.081 470.864 229.081C483.937 229.081 490.098 236.622 490.098 251.581V273.586C490.098 285.148 488.588 287.289 485.067 288.164V289.549H501.666V288.164C498.145 287.289 496.635 285.148 496.635 273.586V248.945C496.635 234.107 489.343 225.81 476.145 225.81C466.463 225.81 456.406 231.216 448.739 237.503V226.565L447.859 225.81L437.171 230.461V231.596C440.942 233.226 442.203 234.362 442.203 244.669V273.586C442.203 285.148 440.692 287.289 437.171 288.164V289.549Z"  />
<path d="M507.694 289.549H524.288V288.164C520.767 287.289 519.262 285.148 519.262 273.586V226.565L518.381 225.81L507.694 230.461V231.596C511.465 233.226 512.725 234.362 512.725 244.669V273.586C512.725 285.148 511.215 287.289 507.694 288.164V289.549ZM510.084 209.216C510.084 212.107 512.345 214.372 515.236 214.372C518.131 214.372 520.392 212.107 520.392 209.216C520.392 206.325 518.256 204.06 515.236 204.06C512.345 204.06 510.084 206.325 510.084 209.216Z"  />
<path d="M551.189 290.805C558.23 290.805 564.892 285.023 568.793 280.372L567.783 279.367C563.637 284.143 559.111 286.278 554.71 286.278C549.428 286.278 545.283 283.138 545.283 273.711V228.2H563.387L564.137 226.69H545.283V212.487H543.897L530.699 226.69V228.2H538.746V273.961C538.746 286.534 543.897 290.805 551.189 290.805Z"  />
<path d="M569.416 313.815C573.817 313.815 587.145 314.565 599.088 287.034L618.947 241.398C623.473 230.716 626.619 228.956 629.759 228.075V226.69H616.306V228.075C620.707 228.956 620.582 233.482 617.187 241.398L600.093 280.877L583.624 241.398C579.098 230.716 578.973 228.956 582.489 228.075V226.69H566.9V228.075C569.416 228.956 572.056 230.716 576.582 241.398L596.447 289.299C592.926 296.716 588.025 304.383 582.239 308.534C577.338 307.653 570.676 305.138 567.655 305.138C564.515 305.138 561.624 308.534 561.624 310.794C561.624 312.305 564.89 313.815 569.416 313.815Z"  />
<path d="M316.163 0.322266C318.106 4.19727 320.528 8.56185 323.434 13.4056C326.335 18.2389 329.413 22.9889 332.663 27.6556C335.923 32.3223 338.876 36.2389 341.517 39.4056V42.5723H325.934C321.892 39.4056 317.314 35.3171 312.205 30.3014C307.106 25.2754 302.397 20.2546 298.08 15.2389C293.772 10.2285 290.564 6.13477 288.455 2.9681V0.322266H316.163Z"  />
</svg>
